<!-- sample rectangle -->
 <svg width="28" height="27" viewBox="0 0 28 27" fill="none" xmlns="http://www.w3.org/2000/svg"><path d="M23.7661 3.95408C21.1366 1.40426 17.6405 0 13.9218 0C10.2031 0 6.70711 1.40426 4.0776 3.95408C1.4481 6.50389 0 9.89402 0 13.5C0 17.106 1.4481 20.4961 4.0776 23.0459C6.70711 25.5957 10.2032 27 13.9218 27C17.6404 27 21.1366 25.5957 23.7661 23.0459C26.3957 20.4961 27.8438 17.106 27.8438 13.5C27.8438 9.89402 26.3957 6.50389 23.7661 3.95408ZM13.9218 25.418C7.14489 25.418 1.63148 20.0716 1.63148 13.5C1.63148 6.9284 7.14489 1.58203 13.9218 1.58203C20.6988 1.58203 26.2123 6.9284 26.2123 13.5C26.2123 20.0716 20.6988 25.418 13.9218 25.418Z" fill="#629D23"></path><path d="M8.6794 7.62539C6.78428 7.62539 5.24248 9.12052 5.24248 10.9583C5.24248 11.3951 5.60771 11.7493 6.05821 11.7493C6.50872 11.7493 6.87395 11.3951 6.87395 10.9583C6.87395 9.99285 7.68387 9.20742 8.6794 9.20742C9.67492 9.20742 10.4848 9.99285 10.4848 10.9583C10.4848 11.3951 10.8501 11.7493 11.3006 11.7493C11.7511 11.7493 12.1163 11.3951 12.1163 10.9583C12.1163 9.12052 10.5745 7.62539 8.6794 7.62539Z" fill="#629D23"></path><path d="M19.1643 7.62539C17.2692 7.62539 15.7274 9.12052 15.7274 10.9583C15.7274 11.3951 16.0926 11.7493 16.5431 11.7493C16.9936 11.7493 17.3589 11.3951 17.3589 10.9583C17.3589 9.99285 18.1688 9.20742 19.1643 9.20742C20.1598 9.20742 20.9697 9.99285 20.9697 10.9583C20.9697 11.3951 21.335 11.7493 21.7855 11.7493C22.236 11.7493 22.6012 11.3951 22.6012 10.9583C22.6012 9.12052 21.0594 7.62539 19.1643 7.62539Z" fill="#629D23"></path><path d="M21.6092 15.296C21.1845 15.1504 20.7184 15.3663 20.5682 15.7782C19.5749 18.5034 16.9039 20.3344 13.9218 20.3344C10.9397 20.3344 8.2687 18.5034 7.2754 15.7782C7.12531 15.3663 6.65914 15.1504 6.23447 15.296C5.80969 15.4415 5.58704 15.8935 5.73719 16.3054C6.96048 19.6615 10.2496 21.9164 13.9218 21.9164C17.594 21.9164 20.8831 19.6615 22.1064 16.3054C22.2566 15.8935 22.034 15.4415 21.6092 15.296Z" fill="#629D23"></path></svg>