<!-- sample rectangle -->
<svg width="30" height="24" viewBox="0 0 30 24" fill="none" xmlns="http://www.w3.org/2000/svg"><path d="M28.2422 0.914286H8.08594C7.11662 0.914286 6.32812 1.68326 6.32812 2.62857V5.36317L1.00021 0.167411C0.771561 -0.0558036 0.400543 -0.0558036 0.171661 0.167411C-0.0572205 0.390402 -0.0572205 0.752232 0.171661 0.975446L7.07336 7.70625L3.42682 11.2625L1.00021 8.89598C0.771561 8.67299 0.400543 8.67299 0.171661 8.89598C-0.0572205 9.1192 -0.0572205 9.48103 0.171661 9.70424L5.04227 14.4542L5.04158 14.9685C5.03952 16.281 5.50232 17.5696 6.32812 18.5975V22.2857C6.32812 23.231 7.11662 24 8.08594 24H28.2422C29.2115 24 30 23.231 30 22.2857V9.25647C30 8.94085 29.7377 8.68505 29.4141 8.68505C29.0904 8.68505 28.8281 8.94085 28.8281 9.25647V22.2857C28.8281 22.6007 28.5654 22.8571 28.2422 22.8571H16.0096C16.0341 22.8359 16.0581 22.8141 16.0817 22.7911C16.2318 22.6446 16.3474 22.4772 16.4291 22.2984C16.661 22.4116 16.9183 22.4719 17.1851 22.4719C17.6369 22.4719 18.0618 22.3002 18.3815 21.9886C18.701 21.6772 18.877 21.2627 18.877 20.8221C18.877 20.5621 18.8152 20.3114 18.6994 20.0855C18.885 20.0042 19.056 19.8904 19.2041 19.746C19.5236 19.4344 19.6996 19.0199 19.6996 18.5792C19.6996 18.1384 19.5236 17.7241 19.2041 17.4125L17.1861 15.4444C17.8075 15.4886 18.436 15.2279 18.8276 14.706L18.8468 14.6804C19.4607 13.8618 19.2833 12.7051 18.4513 12.102C17.9265 11.7217 17.2156 11.2042 16.3383 10.5638C15.1076 9.66607 13.5839 9.17188 12.047 9.17188C12.0444 9.17188 12.0419 9.17188 12.0392 9.17188L10.2354 9.17366L7.5 6.50603V2.62857C7.5 2.31339 7.76276 2.05714 8.08594 2.05714H14.203V7.88437C14.203 8.11562 14.3459 8.32388 14.5649 8.41228C14.7837 8.50089 15.0357 8.45201 15.2032 8.28862L16.4765 7.04688L17.7498 8.28839C17.9784 8.51161 18.3495 8.51161 18.5783 8.28839L19.8516 7.04688L21.1246 8.28839C21.2368 8.39777 21.3867 8.4558 21.5392 8.4558C21.6147 8.4558 21.6909 8.44152 21.7632 8.41228C21.9823 8.32388 22.1251 8.11562 22.1251 7.88437V2.05714H28.2422C28.5654 2.05714 28.8281 2.31339 28.8281 2.62857V4.68504C28.8281 5.00067 29.0904 5.25647 29.4141 5.25647C29.7377 5.25647 30 5.00067 30 4.68504V2.62857C30 1.68326 29.2115 0.914286 28.2422 0.914286ZM7.5 22.2857V19.8004L10.6343 22.8571H8.08594C7.76276 22.8571 7.5 22.6007 7.5 22.2857ZM12.0406 10.3145H12.047C13.3324 10.3145 14.6068 10.7281 15.6361 11.479C16.5145 12.1199 17.2266 12.6382 17.7523 13.0192C18.0695 13.2493 18.1364 13.6917 17.9011 14.0054L17.8819 14.031C17.6662 14.3183 17.257 14.3922 16.9503 14.1993L14.7018 12.7857C14.4093 12.602 14.0238 12.6625 13.8055 12.9268C13.5869 13.1908 13.6077 13.571 13.8538 13.8109L18.3755 18.2208C18.4737 18.3165 18.5278 18.4438 18.5278 18.5792C18.5278 18.7147 18.4737 18.842 18.3755 18.9377C18.2774 19.0335 18.1467 19.0864 18.0077 19.0864C17.8896 19.0864 17.7775 19.0478 17.6862 18.9772L15.4168 16.7641C15.4012 16.7489 15.3848 16.7348 15.3678 16.7217L15.136 16.4955C14.9071 16.2725 14.5361 16.2723 14.3072 16.4955C14.0785 16.7185 14.0785 17.0804 14.3072 17.3036L16.8116 19.746C16.8375 19.7712 16.8645 19.7953 16.8917 19.8188L17.5529 20.4636C17.6511 20.5594 17.7052 20.6866 17.7052 20.8221C17.7052 20.9576 17.6511 21.0848 17.5529 21.1806C17.4548 21.2763 17.3241 21.3292 17.1851 21.3292C17.0464 21.3292 16.9157 21.2763 16.8176 21.1806L16.1561 20.5355C16.1323 20.5092 16.1078 20.483 16.0817 20.4576L13.8556 18.2866C13.8398 18.2714 13.8233 18.2574 13.8064 18.2442L13.5745 18.0181C13.3459 17.7949 12.9749 17.7949 12.746 18.0181C12.5171 18.2411 12.5171 18.6029 12.746 18.8261L15.2934 21.3105C15.4543 21.5094 15.4413 21.7996 15.2531 21.983C15.0504 22.1806 14.7205 22.1806 14.5177 21.983L13.778 21.2616C13.754 21.2348 13.7292 21.2087 13.7034 21.1835L12.2944 19.8092C12.2786 19.794 12.2621 19.7799 12.2452 19.7667L12.0133 19.5406C11.7847 19.3174 11.4137 19.3174 11.1848 19.5406C10.9559 19.7638 10.9559 20.1257 11.1848 20.3489L12.9151 22.0364C12.9874 22.1254 13.027 22.2348 13.027 22.35C13.027 22.4855 12.973 22.6129 12.8746 22.7087C12.7764 22.8045 12.646 22.8571 12.507 22.8571C12.3681 22.8571 12.2376 22.8045 12.1394 22.7087L9.07036 19.7156L9.0699 19.715L7.62909 18.31C6.72775 17.4308 6.21162 16.2136 6.21346 14.9705L6.21483 14.14L10.1351 10.3167L12.0406 10.3145ZM5.4673 13.2525L4.25537 12.0708L7.90192 8.51429L9.11385 9.69621L5.4673 13.2525ZM20.9532 6.50491L20.2659 5.8346C20.037 5.61161 19.666 5.61161 19.4373 5.8346L18.1641 7.07634L16.8908 5.8346C16.7764 5.72299 16.6264 5.66719 16.4765 5.66719C16.3266 5.66719 16.1767 5.72299 16.0622 5.8346L15.3749 6.50491V2.05714H20.9532V6.50491Z" fill="#629D23"></path><path d="M26.25 17.0946H22.5C22.1764 17.0946 21.9141 17.3504 21.9141 17.6661C21.9141 17.9817 22.1764 18.2375 22.5 18.2375H26.25C26.5736 18.2375 26.8359 17.9817 26.8359 17.6661C26.8359 17.3504 26.5736 17.0946 26.25 17.0946Z" fill="#629D23"></path><path d="M26.25 19.4516H23.711C23.3874 19.4516 23.1251 19.7074 23.1251 20.023C23.1251 20.3384 23.3874 20.5944 23.711 20.5944H26.25C26.5736 20.5944 26.8359 20.3384 26.8359 20.023C26.8359 19.7074 26.5736 19.4516 26.25 19.4516Z" fill="#629D23"></path><path d="M21.3673 19.4513C21.2128 19.4513 21.0622 19.5125 20.9532 19.6187C20.8436 19.725 20.7813 19.8725 20.7813 20.0228C20.7813 20.1732 20.8436 20.3205 20.9532 20.4268C21.0622 20.533 21.2132 20.5942 21.3673 20.5942C21.5215 20.5942 21.6726 20.533 21.7815 20.4268C21.8907 20.3205 21.9532 20.1732 21.9532 20.0228C21.9532 19.8725 21.8907 19.725 21.7815 19.6187C21.6726 19.5125 21.5215 19.4513 21.3673 19.4513Z" fill="#629D23"></path><path d="M29.4141 6.39933C29.26 6.39933 29.1087 6.46049 28.9998 6.56674C28.8908 6.67321 28.8281 6.82054 28.8281 6.97076C28.8281 7.1212 28.8908 7.26853 28.9998 7.37478C29.1087 7.48103 29.26 7.54219 29.4141 7.54219C29.5681 7.54219 29.7194 7.48103 29.8283 7.37478C29.9373 7.26853 30 7.1212 30 6.97076C30 6.82054 29.9373 6.67321 29.8283 6.56674C29.7194 6.46049 29.5681 6.39933 29.4141 6.39933Z" fill="#629D23"></path></svg>