<!-- sample rectangle -->
<svg width="23" height="23" viewBox="0 0 23 23" fill="none" xmlns="http://www.w3.org/2000/svg"><path d="M4.94159 11.9286L1.44738 8.43483C0.514041 7.5016 0 6.26082 0 4.941C0 2.21654 2.2168 0 4.94159 0C7.66641 0 9.88317 2.21654 9.88317 4.941C9.88317 6.26082 9.36917 7.5016 8.43579 8.43483L4.94159 11.9286ZM4.94159 1.3475C2.9599 1.3475 1.34766 2.95955 1.34766 4.941C1.34766 5.90086 1.7215 6.80328 2.40031 7.48202L4.94159 10.023L7.48291 7.48202C8.16172 6.80328 8.53556 5.90086 8.53556 4.941C8.53556 2.95955 6.92331 1.3475 4.94159 1.3475Z" fill="#629D23"></path><path d="M4.94159 7.187C3.70304 7.187 2.6954 6.17948 2.6954 4.94109C2.6954 3.70269 3.70304 2.69517 4.94159 2.69517C6.18013 2.69517 7.18777 3.70269 7.18777 4.94109C7.18777 6.17948 6.18013 7.187 4.94159 7.187ZM4.94159 4.04267C4.44614 4.04267 4.04306 4.4457 4.04306 4.94109C4.04306 5.43647 4.44614 5.83951 4.94159 5.83951C5.43703 5.83951 5.84011 5.43647 5.84011 4.94109C5.84011 4.4457 5.43703 4.04267 4.94159 4.04267Z" fill="#629D23"></path><path d="M19.4061 23L16.8647 20.459C16.186 19.7803 15.8121 18.8779 15.8121 17.918C15.8121 15.9366 17.4244 14.3245 19.4061 14.3245C21.3878 14.3245 23 15.9366 23 17.918C23 18.8778 22.6262 19.7803 21.9474 20.459L19.4061 23ZM17.8177 19.5062L19.4061 21.0943L20.9944 19.5062C21.4187 19.0819 21.6523 18.5179 21.6523 17.918C21.6523 16.6795 20.6447 15.672 19.4061 15.672C18.1675 15.672 17.1598 16.6795 17.1598 17.918C17.1598 18.5179 17.3935 19.082 17.8177 19.5062Z" fill="#629D23"></path><path d="M16.127 22.9973H8.60469C6.21332 22.9973 4.2678 21.052 4.2678 18.6609C4.2678 16.2698 6.21332 14.3245 8.60469 14.3245H11.1052C11.8428 14.3245 12.4428 13.7245 12.4428 12.987C12.4428 12.2495 11.8428 11.6496 11.1052 11.6496H8.49068V10.3021H11.1052C12.5859 10.3021 13.7905 11.5065 13.7905 12.987C13.7905 14.4675 12.5859 15.672 11.1052 15.672H8.60469C6.95642 15.672 5.61546 17.0128 5.61546 18.6608C5.61546 20.3089 6.95638 21.6498 8.60469 21.6498H16.127L16.127 22.9973Z" fill="#629D23"></path></svg>