<!-- sample rectangle -->
<svg width="22" height="18" viewBox="0 0 22 18" fill="none" xmlns="http://www.w3.org/2000/svg"><path d="M21.609 1.93969C21.324 1.59185 20.9248 1.37938 20.4849 1.34145L4.9923 0.00605393C4.55239 -0.0318709 4.12468 0.109316 3.78768 0.403533C3.45205 0.696597 3.24653 1.10658 3.20863 1.55844L2.89694 4.57717H1.65236C0.741251 4.57717 0 5.34237 0 6.2829V16.2943C0 17.2348 0.741251 18 1.65236 18H17.1989C18.1101 18 18.8513 17.2348 18.8513 16.2943V14.6702L19.403 14.7178C19.4495 14.7218 19.4958 14.7238 19.5417 14.7238C20.3911 14.7238 21.1152 14.0492 21.1872 13.1599L21.9941 3.18327C22.0308 2.72919 21.8941 2.28758 21.609 1.93969ZM1.65236 5.4643H17.1989C17.6362 5.4643 17.992 5.83153 17.992 6.2829V7.19514H0.859371V6.2829C0.859371 5.83153 1.21511 5.4643 1.65236 5.4643ZM0.859371 8.08227H17.992V9.92258H0.859371V8.08227ZM17.1989 17.1129H1.65236C1.21511 17.1129 0.859371 16.7456 0.859371 16.2943V10.8097H17.992V16.2943C17.992 16.7456 17.6362 17.1129 17.1989 17.1129ZM21.1377 3.10942L20.3307 13.086C20.2944 13.5359 19.9102 13.8714 19.4745 13.8337L18.8513 13.78V6.2829C18.8513 5.34237 18.1101 4.57717 17.1989 4.57717H3.76121L4.06367 1.64787C4.06401 1.6445 4.06431 1.64117 4.06457 1.63775C4.10096 1.18793 4.48493 0.852421 4.9208 0.890124L20.4135 2.22552C20.6246 2.24371 20.8162 2.34568 20.9529 2.51264C21.0897 2.6796 21.1554 2.89149 21.1377 3.10942Z" fill="#629D23"></path><path d="M16.1937 12.1285H12.0583C11.821 12.1285 11.6286 12.3271 11.6286 12.5721V15.3572C11.6286 15.6022 11.821 15.8008 12.0583 15.8008H16.1937C16.431 15.8008 16.6234 15.6022 16.6234 15.3572V12.5721C16.6234 12.3271 16.431 12.1285 16.1937 12.1285ZM15.764 14.9136H12.488V13.0156H15.764V14.9136Z" fill="#629D23"></path></svg>